<svg xmlns="http://www.w3.org/2000/svg" width="36.214" height="14.97" viewBox="0 0 36.214 14.97">
  <g id="Group_5370" data-name="Group 5370" transform="translate(0 0)">
    <path id="Path_8709" data-name="Path 8709" d="M344.116,239.918a38.638,38.638,0,0,1-4.459.345A46.255,46.255,0,0,1,328,239.2a15.392,15.392,0,0,0-2.061-.507c.146.458,1.021,1.132,1.511,1.449,2.513,1.589,4.638,1.49,7.626,1.614,1.443.071,6.9-.09,8.324-.268a22.176,22.176,0,0,1,2.765-.113c-.038.088.131.074-.342.119a2.435,2.435,0,0,0-.4.025c-1.963.242-3.861.51-5.825.774a27.4,27.4,0,0,1-7.084.374l-.775.03a7.1,7.1,0,0,0,1.47.906,8.058,8.058,0,0,0,1.786.629c1.6.371,2.729-.069,4.183-.223,1.387-.157,2.609-.368,3.964-.55a39.407,39.407,0,0,1,4.063-.522,1.391,1.391,0,0,1,.535.071c-.418.3-3.694.54-4.507.658.045.453.939.745,1.342.765a11.069,11.069,0,0,0,1.758-.162,12.23,12.23,0,0,1,3.645-.227c2.635.467,3.151,2.995,3.84,4.043.093.162.029.092.161.143a10.715,10.715,0,0,0-.707-4.791,8.431,8.431,0,0,0-2.96-2.76,11.569,11.569,0,0,0-3.95-1.794,39.43,39.43,0,0,0-5.46-.493,65.128,65.128,0,0,1-10.255-1.54,14.466,14.466,0,0,1-4.231-1.56c-.59-.322-1.246-.67-1.868-1.016a16.272,16.272,0,0,0-1.868-1.016,4.989,4.989,0,0,0,1.166,2.289,7.459,7.459,0,0,0,2.014,1.474c3.9,2.062,10.562,2.817,15.107,2.769a13.092,13.092,0,0,1,2.825.026l.266.058c.066.026.033.024.065.048Z" transform="translate(-322.672 -233.254)" fill="#fc2400" fill-rule="evenodd"/>
    <path id="Path_8710" data-name="Path 8710" d="M464.253,246.463c.018.319.68.67.945.8.5.229,1.033.392,1.166.444.2.1.069-.019.129.143a6.87,6.87,0,0,1-1.407-.364,1.743,1.743,0,0,0-1.39-.023,16.241,16.241,0,0,0-2.14.736,1.428,1.428,0,0,1-.139.061c-.14.084-.068,0-.108.131.066.049,0,.023.1.073l1.9.616a12.048,12.048,0,0,1,3.333,1.914,4.891,4.891,0,0,1,.683.6c.129.143.481.569.717.6.471-.613,1.09-3.538,4.324-3.766.851-.049,1.083.053.9-.3a1.269,1.269,0,0,0-.748-.65c-.433-.158-.228-.193-.644-.714-1.276-1.654-3.378-1.007-5.265-.576a9.323,9.323,0,0,1-1.1.2,11.749,11.749,0,0,1-1.259.075Zm6.886.279c-.313-.166-.614-.237-.655-.153s.188.286.479.472.606.244.655.153c.034-.064-.066-.144-.234-.27a1.937,1.937,0,0,0-.245-.2Z" transform="translate(-437.111 -243.527)" fill="#fc2400" fill-rule="evenodd"/>
  </g>
</svg>
